<mxfile host="app.diagrams.net" agent="Mozilla/5.0 (Windows NT 10.0; Win64; x64) AppleWebKit/537.36 (KHTML, like Gecko) Chrome/140.0.0.0 Safari/537.36" version="28.2.4">
  <diagram name="1 oldal" id="rC1D94TRg9H1widTGEo7">
    <mxGraphModel dx="1489" dy="900" grid="1" gridSize="10" guides="1" tooltips="1" connect="1" arrows="1" fold="1" page="1" pageScale="1" pageWidth="827" pageHeight="1169" math="0" shadow="0">
      <root>
        <mxCell id="0" />
        <mxCell id="1" parent="0" />
        <mxCell id="m1VjKG5EBVoU8KhEE2Ae-1" value="&lt;b&gt;U7W4RZ_orarend&lt;/b&gt;" style="ellipse;whiteSpace=wrap;html=1;" parent="1" vertex="1">
          <mxGeometry x="350" y="60" width="120" height="80" as="geometry" />
        </mxCell>
        <mxCell id="m1VjKG5EBVoU8KhEE2Ae-2" value="" style="endArrow=none;html=1;rounded=0;" parent="1" edge="1">
          <mxGeometry width="50" height="50" relative="1" as="geometry">
            <mxPoint x="414" y="200" as="sourcePoint" />
            <mxPoint x="414" y="140" as="targetPoint" />
          </mxGeometry>
        </mxCell>
        <mxCell id="m1VjKG5EBVoU8KhEE2Ae-3" value="&lt;b&gt;ora&lt;/b&gt;" style="ellipse;whiteSpace=wrap;html=1;" parent="1" vertex="1">
          <mxGeometry x="354" y="200" width="120" height="80" as="geometry" />
        </mxCell>
        <mxCell id="m1VjKG5EBVoU8KhEE2Ae-4" value="" style="endArrow=none;html=1;rounded=0;exitX=0;exitY=0.5;exitDx=0;exitDy=0;entryX=1;entryY=0.5;entryDx=0;entryDy=0;" parent="1" source="m1VjKG5EBVoU8KhEE2Ae-3" target="m1VjKG5EBVoU8KhEE2Ae-5" edge="1">
          <mxGeometry width="50" height="50" relative="1" as="geometry">
            <mxPoint x="349.9999999999999" y="200.00000000000003" as="sourcePoint" />
            <mxPoint x="90" y="240" as="targetPoint" />
          </mxGeometry>
        </mxCell>
        <mxCell id="m1VjKG5EBVoU8KhEE2Ae-5" value="&lt;b&gt;&lt;u&gt;id&lt;/u&gt;&lt;/b&gt;" style="rhombus;whiteSpace=wrap;html=1;" parent="1" vertex="1">
          <mxGeometry x="80" y="199.99999999999997" width="80" height="80" as="geometry" />
        </mxCell>
        <mxCell id="m1VjKG5EBVoU8KhEE2Ae-7" value="&lt;b&gt;tipus&lt;/b&gt;" style="rhombus;whiteSpace=wrap;html=1;" parent="1" vertex="1">
          <mxGeometry x="680" y="200" width="80" height="80" as="geometry" />
        </mxCell>
        <mxCell id="m1VjKG5EBVoU8KhEE2Ae-8" value="&lt;b&gt;idopont&lt;/b&gt;" style="ellipse;whiteSpace=wrap;html=1;" parent="1" vertex="1">
          <mxGeometry x="220.64" y="320" width="120" height="80" as="geometry" />
        </mxCell>
        <mxCell id="m1VjKG5EBVoU8KhEE2Ae-10" value="" style="endArrow=none;html=1;rounded=0;exitX=0.5;exitY=0;exitDx=0;exitDy=0;entryX=0.5;entryY=1;entryDx=0;entryDy=0;" parent="1" source="m1VjKG5EBVoU8KhEE2Ae-8" target="m1VjKG5EBVoU8KhEE2Ae-3" edge="1">
          <mxGeometry width="50" height="50" relative="1" as="geometry">
            <mxPoint x="376.64" y="330" as="sourcePoint" />
            <mxPoint x="350.64" y="280" as="targetPoint" />
          </mxGeometry>
        </mxCell>
        <mxCell id="m1VjKG5EBVoU8KhEE2Ae-11" value="&lt;b&gt;targy&lt;/b&gt;" style="ellipse;whiteSpace=wrap;html=1;" parent="1" vertex="1">
          <mxGeometry x="90" y="320" width="120" height="80" as="geometry" />
        </mxCell>
        <mxCell id="m1VjKG5EBVoU8KhEE2Ae-12" value="" style="endArrow=none;html=1;rounded=0;exitX=0.5;exitY=0;exitDx=0;exitDy=0;entryX=0.5;entryY=1;entryDx=0;entryDy=0;" parent="1" source="m1VjKG5EBVoU8KhEE2Ae-11" target="m1VjKG5EBVoU8KhEE2Ae-3" edge="1">
          <mxGeometry width="50" height="50" relative="1" as="geometry">
            <mxPoint x="460" y="370" as="sourcePoint" />
            <mxPoint x="434" y="320" as="targetPoint" />
          </mxGeometry>
        </mxCell>
        <mxCell id="m1VjKG5EBVoU8KhEE2Ae-13" value="&lt;b&gt;helyszin&lt;/b&gt;" style="ellipse;whiteSpace=wrap;html=1;" parent="1" vertex="1">
          <mxGeometry x="354" y="320" width="120" height="80" as="geometry" />
        </mxCell>
        <mxCell id="m1VjKG5EBVoU8KhEE2Ae-14" value="" style="endArrow=none;html=1;rounded=0;exitX=0.5;exitY=0;exitDx=0;exitDy=0;entryX=0.5;entryY=1;entryDx=0;entryDy=0;" parent="1" source="m1VjKG5EBVoU8KhEE2Ae-13" target="m1VjKG5EBVoU8KhEE2Ae-3" edge="1">
          <mxGeometry width="50" height="50" relative="1" as="geometry">
            <mxPoint x="627.36" y="330" as="sourcePoint" />
            <mxPoint x="411.36" y="280" as="targetPoint" />
          </mxGeometry>
        </mxCell>
        <mxCell id="m1VjKG5EBVoU8KhEE2Ae-15" value="&lt;b&gt;oktato&lt;/b&gt;" style="ellipse;whiteSpace=wrap;html=1;" parent="1" vertex="1">
          <mxGeometry x="490" y="320" width="120" height="80" as="geometry" />
        </mxCell>
        <mxCell id="m1VjKG5EBVoU8KhEE2Ae-16" value="" style="endArrow=none;html=1;rounded=0;exitX=0.5;exitY=0;exitDx=0;exitDy=0;entryX=0.5;entryY=1;entryDx=0;entryDy=0;" parent="1" source="m1VjKG5EBVoU8KhEE2Ae-15" target="m1VjKG5EBVoU8KhEE2Ae-3" edge="1">
          <mxGeometry width="50" height="50" relative="1" as="geometry">
            <mxPoint x="840" y="330" as="sourcePoint" />
            <mxPoint x="424" y="280" as="targetPoint" />
          </mxGeometry>
        </mxCell>
        <mxCell id="m1VjKG5EBVoU8KhEE2Ae-17" value="&lt;b&gt;szak&lt;/b&gt;" style="ellipse;whiteSpace=wrap;html=1;" parent="1" vertex="1">
          <mxGeometry x="620" y="320" width="120" height="80" as="geometry" />
        </mxCell>
        <mxCell id="m1VjKG5EBVoU8KhEE2Ae-18" value="" style="endArrow=none;html=1;rounded=0;exitX=0.5;exitY=0;exitDx=0;exitDy=0;entryX=0.5;entryY=1;entryDx=0;entryDy=0;" parent="1" source="m1VjKG5EBVoU8KhEE2Ae-17" target="m1VjKG5EBVoU8KhEE2Ae-3" edge="1">
          <mxGeometry width="50" height="50" relative="1" as="geometry">
            <mxPoint x="980" y="330" as="sourcePoint" />
            <mxPoint x="434" y="280" as="targetPoint" />
          </mxGeometry>
        </mxCell>
        <mxCell id="m1VjKG5EBVoU8KhEE2Ae-19" value="&lt;b&gt;nap&lt;/b&gt;" style="ellipse;whiteSpace=wrap;html=1;" parent="1" vertex="1">
          <mxGeometry x="96.64" y="720" width="120" height="80" as="geometry" />
        </mxCell>
        <mxCell id="m1VjKG5EBVoU8KhEE2Ae-20" value="" style="endArrow=none;html=1;rounded=0;exitX=0.5;exitY=0;exitDx=0;exitDy=0;entryX=0.5;entryY=1;entryDx=0;entryDy=0;" parent="1" source="m1VjKG5EBVoU8KhEE2Ae-19" target="m1VjKG5EBVoU8KhEE2Ae-8" edge="1">
          <mxGeometry width="50" height="50" relative="1" as="geometry">
            <mxPoint x="376.64" y="480" as="sourcePoint" />
            <mxPoint x="350.64" y="430" as="targetPoint" />
          </mxGeometry>
        </mxCell>
        <mxCell id="m1VjKG5EBVoU8KhEE2Ae-21" value="&lt;b&gt;tol&lt;/b&gt;" style="ellipse;whiteSpace=wrap;html=1;" parent="1" vertex="1">
          <mxGeometry x="220.64" y="720" width="120" height="80" as="geometry" />
        </mxCell>
        <mxCell id="m1VjKG5EBVoU8KhEE2Ae-22" value="" style="endArrow=none;html=1;rounded=0;exitX=0.5;exitY=0;exitDx=0;exitDy=0;entryX=0.5;entryY=1;entryDx=0;entryDy=0;" parent="1" source="m1VjKG5EBVoU8KhEE2Ae-21" target="m1VjKG5EBVoU8KhEE2Ae-8" edge="1">
          <mxGeometry width="50" height="50" relative="1" as="geometry">
            <mxPoint x="506.64" y="490" as="sourcePoint" />
            <mxPoint x="350.64" y="400" as="targetPoint" />
          </mxGeometry>
        </mxCell>
        <mxCell id="m1VjKG5EBVoU8KhEE2Ae-23" value="&lt;b&gt;ig&lt;/b&gt;" style="ellipse;whiteSpace=wrap;html=1;" parent="1" vertex="1">
          <mxGeometry x="350" y="720" width="120" height="80" as="geometry" />
        </mxCell>
        <mxCell id="m1VjKG5EBVoU8KhEE2Ae-24" value="" style="endArrow=none;html=1;rounded=0;exitX=0.5;exitY=0;exitDx=0;exitDy=0;entryX=0.5;entryY=1;entryDx=0;entryDy=0;" parent="1" source="m1VjKG5EBVoU8KhEE2Ae-23" target="m1VjKG5EBVoU8KhEE2Ae-8" edge="1">
          <mxGeometry width="50" height="50" relative="1" as="geometry">
            <mxPoint x="646.64" y="490" as="sourcePoint" />
            <mxPoint x="620.64" y="440" as="targetPoint" />
          </mxGeometry>
        </mxCell>
        <mxCell id="m1VjKG5EBVoU8KhEE2Ae-25" value="" style="endArrow=none;html=1;rounded=0;" parent="1" edge="1">
          <mxGeometry width="50" height="50" relative="1" as="geometry">
            <mxPoint x="150" y="460" as="sourcePoint" />
            <mxPoint x="150" y="400" as="targetPoint" />
          </mxGeometry>
        </mxCell>
        <mxCell id="m1VjKG5EBVoU8KhEE2Ae-26" value="" style="rounded=0;whiteSpace=wrap;html=1;direction=south;" parent="1" vertex="1">
          <mxGeometry x="120" y="420" width="60" height="120" as="geometry" />
        </mxCell>
        <mxCell id="m1VjKG5EBVoU8KhEE2Ae-27" value="" style="endArrow=none;html=1;rounded=0;" parent="1" edge="1">
          <mxGeometry width="50" height="50" relative="1" as="geometry">
            <mxPoint x="414.64" y="460" as="sourcePoint" />
            <mxPoint x="414.64" y="400" as="targetPoint" />
          </mxGeometry>
        </mxCell>
        <mxCell id="m1VjKG5EBVoU8KhEE2Ae-28" value="" style="rounded=0;whiteSpace=wrap;html=1;direction=south;" parent="1" vertex="1">
          <mxGeometry x="384" y="420" width="60" height="120" as="geometry" />
        </mxCell>
        <mxCell id="m1VjKG5EBVoU8KhEE2Ae-29" value="" style="endArrow=none;html=1;rounded=0;entryX=0.5;entryY=1;entryDx=0;entryDy=0;" parent="1" edge="1" target="m1VjKG5EBVoU8KhEE2Ae-15" source="m1VjKG5EBVoU8KhEE2Ae-30">
          <mxGeometry width="50" height="50" relative="1" as="geometry">
            <mxPoint x="540" y="460" as="sourcePoint" />
            <mxPoint x="540" y="400" as="targetPoint" />
          </mxGeometry>
        </mxCell>
        <mxCell id="m1VjKG5EBVoU8KhEE2Ae-30" value="" style="rounded=0;whiteSpace=wrap;html=1;direction=south;" parent="1" vertex="1">
          <mxGeometry x="520" y="420" width="60" height="120" as="geometry" />
        </mxCell>
        <mxCell id="m1VjKG5EBVoU8KhEE2Ae-31" value="" style="endArrow=none;html=1;rounded=0;entryX=0.5;entryY=1;entryDx=0;entryDy=0;" parent="1" edge="1" target="m1VjKG5EBVoU8KhEE2Ae-17" source="m1VjKG5EBVoU8KhEE2Ae-32">
          <mxGeometry width="50" height="50" relative="1" as="geometry">
            <mxPoint x="660" y="460" as="sourcePoint" />
            <mxPoint x="660" y="400" as="targetPoint" />
          </mxGeometry>
        </mxCell>
        <mxCell id="m1VjKG5EBVoU8KhEE2Ae-32" value="" style="rounded=0;whiteSpace=wrap;html=1;direction=south;" parent="1" vertex="1">
          <mxGeometry x="650" y="420" width="60" height="120" as="geometry" />
        </mxCell>
        <mxCell id="m1VjKG5EBVoU8KhEE2Ae-33" value="" style="endArrow=none;html=1;rounded=0;" parent="1" edge="1">
          <mxGeometry width="50" height="50" relative="1" as="geometry">
            <mxPoint x="156.64" y="860" as="sourcePoint" />
            <mxPoint x="156.64" y="800" as="targetPoint" />
          </mxGeometry>
        </mxCell>
        <mxCell id="m1VjKG5EBVoU8KhEE2Ae-34" value="" style="rounded=0;whiteSpace=wrap;html=1;direction=south;" parent="1" vertex="1">
          <mxGeometry x="126.64" y="820" width="60" height="120" as="geometry" />
        </mxCell>
        <mxCell id="m1VjKG5EBVoU8KhEE2Ae-35" value="" style="endArrow=none;html=1;rounded=0;" parent="1" edge="1">
          <mxGeometry width="50" height="50" relative="1" as="geometry">
            <mxPoint x="280.64" y="860" as="sourcePoint" />
            <mxPoint x="280.64" y="800" as="targetPoint" />
          </mxGeometry>
        </mxCell>
        <mxCell id="m1VjKG5EBVoU8KhEE2Ae-36" value="" style="rounded=0;whiteSpace=wrap;html=1;direction=south;" parent="1" vertex="1">
          <mxGeometry x="250.64" y="820" width="60" height="120" as="geometry" />
        </mxCell>
        <mxCell id="m1VjKG5EBVoU8KhEE2Ae-37" value="" style="endArrow=none;html=1;rounded=0;" parent="1" edge="1">
          <mxGeometry width="50" height="50" relative="1" as="geometry">
            <mxPoint x="410" y="860" as="sourcePoint" />
            <mxPoint x="410" y="800" as="targetPoint" />
          </mxGeometry>
        </mxCell>
        <mxCell id="m1VjKG5EBVoU8KhEE2Ae-38" value="" style="rounded=0;whiteSpace=wrap;html=1;direction=south;" parent="1" vertex="1">
          <mxGeometry x="380" y="820" width="60" height="120" as="geometry" />
        </mxCell>
        <mxCell id="xbBV0xqtafIV1-tiF0KL-1" value="&lt;b&gt;ora&lt;/b&gt;" style="ellipse;whiteSpace=wrap;html=1;" parent="1" vertex="1">
          <mxGeometry x="369" y="210" width="90" height="60" as="geometry" />
        </mxCell>
        <mxCell id="YQ12emQG9mOmDFgA4oj7-1" value="" style="endArrow=none;html=1;rounded=0;entryX=1;entryY=0.5;entryDx=0;entryDy=0;exitX=0;exitY=0.5;exitDx=0;exitDy=0;" edge="1" parent="1" source="m1VjKG5EBVoU8KhEE2Ae-7" target="m1VjKG5EBVoU8KhEE2Ae-3">
          <mxGeometry width="50" height="50" relative="1" as="geometry">
            <mxPoint x="791" y="160" as="sourcePoint" />
            <mxPoint x="510" y="221" as="targetPoint" />
          </mxGeometry>
        </mxCell>
      </root>
    </mxGraphModel>
  </diagram>
</mxfile>
